<svg width="23" height="20" viewBox="0 0 23 20" fill="none" xmlns="http://www.w3.org/2000/svg">
<path d="M17.2748 15V20H15.2748V15C15.2748 10.5487 17.9188 6.71498 21.7219 4.98352L22.5497 6.8047C19.4381 8.2213 17.2748 11.3581 17.2748 15ZM7.27486 15V20H5.27486V15C5.27486 11.3581 3.11164 8.2213 0 6.8047L0.827804 4.98352C4.63092 6.71498 7.27486 10.5487 7.27486 15ZM11.2748 10C8.51343 10 6.27486 7.76142 6.27486 5C6.27486 2.23858 8.51343 0 11.2748 0C14.0363 0 16.2748 2.23858 16.2748 5C16.2748 7.76142 14.0363 10 11.2748 10ZM11.2748 8C12.9317 8 14.2748 6.65685 14.2748 5C14.2748 3.34315 12.9317 2 11.2748 2C9.61801 2 8.27486 3.34315 8.27486 5C8.27486 6.65685 9.61801 8 11.2748 8Z" fill="#1BBDF5"/>
</svg>
