<svg width="72" height="48" viewBox="0 0 72 48" fill="none" xmlns="http://www.w3.org/2000/svg">
<path d="M0 0V37.3333C21.3382 37.3333 35.9359 48 35.9359 48C35.9359 48 50.7927 37.3333 72 37.3333V0C45.8182 0 35.9359 9.19787 35.9359 9.19787C35.9359 9.19787 26.1818 0 0 0ZM6.54545 5.33333C14.3692 5.1664 26.5287 7.47467 32.7273 12.5211L36 16L39.2727 12.5211C45.5662 7.56427 57.6059 5.26827 65.4545 5.33333V32C52.3636 32 43.4985 36.5675 35.9359 41.4997C28.4767 36.5509 19.6364 32 6.54545 32V5.33333ZM13.0909 12.2811V13.2496C18.4804 14.1499 26.8344 16.9125 32.7273 19.5205V18.3019C26.7238 15.752 18.485 13.12 13.0909 12.2811ZM58.9091 12.2811C53.515 13.12 45.2762 15.752 39.2727 18.3019V19.5205C45.1656 16.9125 53.5196 14.1499 58.9091 13.2496V12.2811ZM13.0909 17.1877V18.1563C18.4693 18.9771 26.8265 21.6677 32.7273 24.1979V23.1563C26.7231 20.6203 18.4831 18.0011 13.0909 17.1877ZM58.9091 17.1877C53.5169 18.0011 45.2769 20.6203 39.2727 23.1563V24.1979C45.1735 21.6677 53.5307 18.9771 58.9091 18.1563V17.1877ZM13.0909 21.9584V22.9269C18.4687 23.752 26.8259 26.4416 32.7273 28.9685V27.9269C26.7218 25.3941 18.4817 22.7771 13.0909 21.9584ZM58.9091 21.9584C53.5183 22.7771 45.2782 25.3941 39.2727 27.9269V28.9685C45.1741 26.4416 53.5313 23.752 58.9091 22.9269V21.9584ZM13.0909 26.6667V27.6352C18.4588 28.384 26.8167 30.992 32.7273 33.4373V32.6352C26.7218 30.104 18.4817 27.4869 13.0909 26.6667ZM58.9091 26.6667C53.5183 27.4869 45.2782 30.104 39.2727 32.6352V33.4373C45.1833 30.992 53.5412 28.384 58.9091 27.6352V26.6667Z" fill="#00132B"/>
</svg>
