<svg width="27" height="27" viewBox="0 0 27 27" fill="none" xmlns="http://www.w3.org/2000/svg">
<path d="M11.625 4.125C11.625 1.84683 9.77817 0 7.5 0C5.22183 0 3.375 1.84683 3.375 4.125C3.375 6.40317 5.22183 8.25 7.5 8.25C9.77817 8.25 11.625 6.40317 11.625 4.125ZM4.875 4.125C4.875 2.67525 6.05025 1.5 7.5 1.5C8.94975 1.5 10.125 2.67525 10.125 4.125C10.125 5.57475 8.94975 6.75 7.5 6.75C6.05025 6.75 4.875 5.57475 4.875 4.125Z" fill="#00132B"/>
<path d="M2.25 9.75H8.52378C8.27788 10.2152 8.0953 10.719 7.98751 11.25H2.25C1.83579 11.25 1.5 11.5858 1.5 12V12.75C1.5 14.6386 3.14776 16.6707 6.14454 17.1463C5.66094 17.4751 5.25819 17.9139 4.97229 18.4267C1.80844 17.5678 0 15.1311 0 12.75V12C0 10.7574 1.00735 9.75 2.25 9.75Z" fill="#00132B"/>
<path d="M10.3179 9.75C11.0745 8.83387 12.219 8.25 13.5 8.25C14.781 8.25 15.9255 8.83387 16.6821 9.75C17.0407 10.1843 17.3122 10.6932 17.4697 11.25C17.5708 11.6076 17.625 11.985 17.625 12.375C17.625 13.98 16.7083 15.3709 15.3699 16.0528C14.8378 16.3237 14.2393 16.4827 13.6053 16.4986C13.5703 16.4995 13.5352 16.5 13.5 16.5C13.4648 16.5 13.4297 16.4995 13.3947 16.4986C12.7606 16.4827 12.1621 16.3239 11.6301 16.0528C10.2917 15.3709 9.375 13.98 9.375 12.375C9.375 11.985 9.42912 11.6076 9.53028 11.25C9.68775 10.6932 9.95922 10.1843 10.3179 9.75ZM11.1276 11.25C10.9656 11.591 10.875 11.9724 10.875 12.375C10.875 13.4461 11.5165 14.3673 12.4363 14.7756C12.7614 14.9199 13.1214 15 13.5 15C13.8786 15 14.2386 14.9199 14.5636 14.7756C15.4834 14.3673 16.125 13.4461 16.125 12.375C16.125 11.9724 16.0344 11.591 15.8724 11.25C15.5043 10.4753 14.7679 9.9094 13.8895 9.77871C13.7625 9.75979 13.6324 9.75 13.5 9.75C13.3676 9.75 13.2375 9.75979 13.1104 9.77871C12.232 9.9094 11.4957 10.4753 11.1276 11.25Z" fill="#00132B"/>
<path d="M22.0277 18.4267C21.7418 17.9139 21.3391 17.4751 20.8555 17.1463C23.8523 16.6707 25.5001 14.6386 25.5001 12.75V12C25.5001 11.5858 25.1642 11.25 24.7501 11.25H19.0126C18.9047 10.719 18.7222 10.2152 18.4763 9.75H24.7501C25.9927 9.75 27.0001 10.7574 27.0001 12V12.75C27.0001 15.1311 25.1917 17.5678 22.0277 18.4267Z" fill="#00132B"/>
<path d="M20.2308 18.5559C19.8351 18.2097 19.317 18 18.75 18H8.25C7.60195 18 7.0179 18.2739 6.60733 18.7124C6.23064 19.1147 6 19.6554 6 20.25V21C6 23.9571 8.78926 27 13.5 27C18.2107 27 21 23.9571 21 21V20.25C21 19.5744 20.7022 18.9684 20.2308 18.5559ZM7.5 20.25C7.5 19.8358 7.83579 19.5 8.25 19.5H18.75C19.1641 19.5 19.5 19.8358 19.5 20.25V21C19.5 23.1564 17.3517 25.5 13.5 25.5C9.64824 25.5 7.5 23.1564 7.5 21V20.25Z" fill="#00132B"/>
<path d="M19.5 0C21.7782 0 23.625 1.84683 23.625 4.125C23.625 6.40317 21.7782 8.25 19.5 8.25C17.2218 8.25 15.375 6.40317 15.375 4.125C15.375 1.84683 17.2218 0 19.5 0ZM19.5 1.5C18.0502 1.5 16.875 2.67525 16.875 4.125C16.875 5.57475 18.0502 6.75 19.5 6.75C20.9497 6.75 22.125 5.57475 22.125 4.125C22.125 2.67525 20.9497 1.5 19.5 1.5Z" fill="#00132B"/>
</svg>
