<svg width="20" height="21" viewBox="0 0 20 21" fill="none" xmlns="http://www.w3.org/2000/svg">
<path d="M10 9.58496C12.7614 9.58496 15 11.8236 15 14.585V20.585H13V14.585C13 12.9873 11.7511 11.6813 10.1763 11.5901L10 11.585C8.4023 11.585 7.09634 12.8339 7.00509 14.4087L7 14.585V20.585H5V14.585C5 11.8236 7.23858 9.58496 10 9.58496ZM3.5 12.585C3.77885 12.585 4.05009 12.6176 4.3101 12.6792C4.14202 13.179 4.03873 13.707 4.00896 14.2543L4 14.585L4.0007 14.6706C3.88757 14.6306 3.76821 14.6037 3.64446 14.5919L3.5 14.585C2.7203 14.585 2.07955 15.1799 2.00687 15.9405L2 16.085V20.585H0V16.085C0 14.152 1.567 12.585 3.5 12.585ZM16.5 12.585C18.433 12.585 20 14.152 20 16.085V20.585H18V16.085C18 15.3053 17.4051 14.6646 16.6445 14.5919L16.5 14.585C16.3248 14.585 16.1566 14.615 16.0003 14.6702L16 14.585C16 13.9193 15.8916 13.279 15.6915 12.6806C15.9499 12.6176 16.2211 12.585 16.5 12.585ZM3.5 6.58496C4.88071 6.58496 6 7.70425 6 9.08496C6 10.4657 4.88071 11.585 3.5 11.585C2.11929 11.585 1 10.4657 1 9.08496C1 7.70425 2.11929 6.58496 3.5 6.58496ZM16.5 6.58496C17.8807 6.58496 19 7.70425 19 9.08496C19 10.4657 17.8807 11.585 16.5 11.585C15.1193 11.585 14 10.4657 14 9.08496C14 7.70425 15.1193 6.58496 16.5 6.58496ZM3.5 8.58496C3.22386 8.58496 3 8.80886 3 9.08496C3 9.36106 3.22386 9.58496 3.5 9.58496C3.77614 9.58496 4 9.36106 4 9.08496C4 8.80886 3.77614 8.58496 3.5 8.58496ZM16.5 8.58496C16.2239 8.58496 16 8.80886 16 9.08496C16 9.36106 16.2239 9.58496 16.5 9.58496C16.7761 9.58496 17 9.36106 17 9.08496C17 8.80886 16.7761 8.58496 16.5 8.58496ZM10 0.584961C12.2091 0.584961 14 2.37582 14 4.58496C14 6.7941 12.2091 8.58496 10 8.58496C7.79086 8.58496 6 6.7941 6 4.58496C6 2.37582 7.79086 0.584961 10 0.584961ZM10 2.58496C8.8954 2.58496 8 3.48039 8 4.58496C8 5.68953 8.8954 6.58496 10 6.58496C11.1046 6.58496 12 5.68953 12 4.58496C12 3.48039 11.1046 2.58496 10 2.58496Z" fill="#26CDFF"/>
</svg>
