<svg width="64" height="64" viewBox="0 0 64 64" fill="none" xmlns="http://www.w3.org/2000/svg">
<path d="M27.5556 9.77778C27.5556 4.37767 23.1779 0 17.7778 0C12.3777 0 8 4.37767 8 9.77778C8 15.1779 12.3777 19.5556 17.7778 19.5556C23.1779 19.5556 27.5556 15.1779 27.5556 9.77778ZM11.5556 9.77778C11.5556 6.34133 14.3413 3.55555 17.7778 3.55555C21.2142 3.55555 24 6.34133 24 9.77778C24 13.2142 21.2142 16 17.7778 16C14.3413 16 11.5556 13.2142 11.5556 9.77778Z" fill="#00132B"/>
<path d="M5.33333 23.1111H20.2045C19.6216 24.2138 19.1889 25.408 18.9334 26.6667H5.33333C4.3515 26.6667 3.55555 27.4626 3.55555 28.4444V30.2222C3.55555 34.699 7.46137 39.5157 14.5648 40.6432C13.4185 41.4226 12.4639 42.4626 11.7862 43.6782C4.28668 41.6423 0 35.8663 0 30.2222V28.4444C0 25.4989 2.3878 23.1111 5.33333 23.1111Z" fill="#00132B"/>
<path d="M24.4571 23.1111C26.2505 20.9395 28.9636 19.5555 31.9999 19.5555C35.0364 19.5555 37.7493 20.9395 39.5427 23.1111C40.3928 24.1405 41.0364 25.3469 41.4097 26.6667C41.6494 27.5144 41.7777 28.4088 41.7777 29.3333C41.7777 33.1378 39.6049 36.4348 36.4323 38.0512C35.1711 38.6933 33.7525 39.0702 32.2495 39.1079C32.1667 39.11 32.0835 39.1111 31.9999 39.1111C31.9165 39.1111 31.8334 39.11 31.7504 39.1079C30.2474 39.0702 28.8286 38.6937 27.5677 38.0512C24.3951 36.4348 22.2222 33.1378 22.2222 29.3333C22.2222 28.4088 22.3505 27.5144 22.5902 26.6667C22.9635 25.3469 23.607 24.1405 24.4571 23.1111ZM26.3765 26.6667C25.9926 27.4749 25.7777 28.379 25.7777 29.3333C25.7777 31.8722 27.2984 34.0558 29.4786 35.0236C30.2493 35.3657 31.1024 35.5555 31.9999 35.5555C32.8974 35.5555 33.7507 35.3657 34.5212 35.0236C36.7015 34.0558 38.2222 31.8722 38.2222 29.3333C38.2222 28.379 38.0074 27.4749 37.6234 26.6667C36.7509 24.8302 35.0055 23.4889 32.9233 23.1791C32.6222 23.1343 32.3139 23.1111 31.9999 23.1111C31.6862 23.1111 31.3778 23.1343 31.0765 23.1791C28.9944 23.4889 27.2489 24.8302 26.3765 26.6667Z" fill="#00132B"/>
<path d="M52.2137 43.6782C51.536 42.4626 50.5813 41.4226 49.435 40.6432C56.5386 39.5157 60.4444 34.699 60.4444 30.2222V28.4444C60.4444 27.4626 59.6483 26.6667 58.6666 26.6667H45.0666C44.811 25.408 44.3783 24.2138 43.7955 23.1111H58.6666C61.6121 23.1111 64 25.4989 64 28.4444V30.2222C64 35.8663 59.7134 41.6423 52.2137 43.6782Z" fill="#00132B"/>
<path d="M47.9544 43.9843C47.0165 43.1637 45.7884 42.6667 44.4444 42.6667H19.5555C18.0194 42.6667 16.635 43.3159 15.6618 44.3552C14.7689 45.3088 14.2222 46.5906 14.2222 48V49.7778C14.2222 56.7872 20.8338 64 31.9999 64C43.1662 64 49.7777 56.7872 49.7777 49.7778V48C49.7777 46.3986 49.0719 44.9621 47.9544 43.9843ZM17.7777 48C17.7777 47.0183 18.5737 46.2222 19.5555 46.2222H44.4444C45.4261 46.2222 46.2222 47.0183 46.2222 48V49.7778C46.2222 54.8892 41.1299 60.4444 31.9999 60.4444C22.8698 60.4444 17.7777 54.8892 17.7777 49.7778V48Z" fill="#00132B"/>
<path d="M46.2222 0C51.6224 0 56 4.37767 56 9.77778C56 15.1779 51.6224 19.5556 46.2222 19.5556C40.8221 19.5556 36.4445 15.1779 36.4445 9.77778C36.4445 4.37767 40.8221 0 46.2222 0ZM46.2222 3.55555C42.7858 3.55555 40 6.34133 40 9.77778C40 13.2142 42.7858 16 46.2222 16C49.6587 16 52.4445 13.2142 52.4445 9.77778C52.4445 6.34133 49.6587 3.55555 46.2222 3.55555Z" fill="#00132B"/>
</svg>
