<svg width="24" height="25" viewBox="0 0 24 25" fill="none" xmlns="http://www.w3.org/2000/svg">
<path d="M12 24.585C5.37258 24.585 0 19.2123 0 12.585C0 5.95754 5.37258 0.584961 12 0.584961C18.6274 0.584961 24 5.95754 24 12.585C24 19.2123 18.6274 24.585 12 24.585ZM9.25202 21.7858C8.09692 19.336 7.38878 16.634 7.23277 13.785H2.47427C2.9496 17.5968 5.65967 20.7146 9.25202 21.7858ZM9.63684 13.785C9.81732 16.7115 10.6534 19.4606 12 21.8874C13.3466 19.4606 14.1827 16.7115 14.3632 13.785H9.63684ZM21.5257 13.785H16.7672C16.6112 16.634 15.9031 19.336 14.748 21.7858C18.3403 20.7146 21.0504 17.5968 21.5257 13.785ZM2.47427 11.385H7.23277C7.38878 8.53589 8.09692 5.83385 9.25202 3.38403C5.65967 4.45536 2.9496 7.57316 2.47427 11.385ZM9.63684 11.385H14.3632C14.1827 8.45843 13.3466 5.70926 12 3.28255C10.6534 5.70926 9.81732 8.45843 9.63684 11.385ZM14.748 3.38403C15.9031 5.83385 16.6112 8.53589 16.7672 11.385H21.5257C21.0504 7.57316 18.3403 4.45536 14.748 3.38403Z" fill="#F08847"/>
</svg>
