<svg width="32" height="32" viewBox="0 0 32 32" fill="none" xmlns="http://www.w3.org/2000/svg">
<path d="M16 32C7.16344 32 0 24.8365 0 16C0 7.16344 7.16344 0 16 0C24.8365 0 32 7.16344 32 16C32 24.8365 24.8365 32 16 32ZM16 28.8C23.0693 28.8 28.8 23.0693 28.8 16C28.8 8.93075 23.0693 3.2 16 3.2C8.93075 3.2 3.2 8.93075 3.2 16C3.2 23.0693 8.93075 28.8 16 28.8ZM23.2 8.8L19.2 19.2L8.8 23.2L12.8 12.8L23.2 8.8ZM16 17.6C16.8837 17.6 17.6 16.8837 17.6 16C17.6 15.1163 16.8837 14.4 16 14.4C15.1163 14.4 14.4 15.1163 14.4 16C14.4 16.8837 15.1163 17.6 16 17.6Z" fill="#26CDFF"/>
</svg>
