<svg width="18" height="21" viewBox="0 0 18 21" fill="none" xmlns="http://www.w3.org/2000/svg">
<path d="M18 2.58496H4C2.89543 2.58496 2 3.48039 2 4.58496C2 5.68953 2.89543 6.58496 4 6.58496H18V19.585C18 20.1373 17.5523 20.585 17 20.585H4C1.79086 20.585 0 18.7941 0 16.585V4.58496C0 2.37582 1.79086 0.584961 4 0.584961H17C17.5523 0.584961 18 1.03268 18 1.58496V2.58496ZM2 16.585C2 17.6896 2.89543 18.585 4 18.585H16V8.58496H4C3.27143 8.58496 2.58835 8.39017 2 8.04983V16.585ZM17 5.58496H4C3.44772 5.58496 3 5.13724 3 4.58496C3 4.03268 3.44772 3.58496 4 3.58496H17V5.58496Z" fill="#26CDFF"/>
</svg>
