<svg width="34" height="28" viewBox="0 0 34 28" fill="none" xmlns="http://www.w3.org/2000/svg">
<path d="M17 0C25.473 0 32.5221 6.03518 34 14C32.5221 21.9648 25.473 28 17 28C8.52697 28 1.47788 21.9648 0 14C1.47788 6.03518 8.52697 0 17 0ZM17 24.8889C23.6557 24.8889 29.351 20.3031 30.7925 14C29.351 7.69694 23.6557 3.11111 17 3.11111C10.3442 3.11111 4.649 7.69694 3.20737 14C4.649 20.3031 10.3442 24.8889 17 24.8889ZM17 21C13.0947 21 9.92885 17.866 9.92885 14C9.92885 10.134 13.0947 7 17 7C20.9052 7 24.0712 10.134 24.0712 14C24.0712 17.866 20.9052 21 17 21ZM17 17.8889C19.1696 17.8889 20.9285 16.1478 20.9285 14C20.9285 11.8522 19.1696 10.1111 17 10.1111C14.8305 10.1111 13.0716 11.8522 13.0716 14C13.0716 16.1478 14.8305 17.8889 17 17.8889Z" fill="#26CDFF"/>
</svg>
