<svg width="20" height="20" viewBox="0 0 20 20" fill="none" xmlns="http://www.w3.org/2000/svg">
<path fill-rule="evenodd" clip-rule="evenodd" d="M0 10C0 4.47717 4.47717 0 10 0C15.5228 0 20 4.47717 20 10C20 15.5228 15.5228 20 10 20C4.47717 20 0 15.5228 0 10ZM10.0005 4.66667C8.55204 4.66667 8.37025 4.673 7.80138 4.69887C7.23358 4.72487 6.84604 4.81479 6.50692 4.94667C6.15613 5.08287 5.85858 5.26512 5.56212 5.56167C5.26546 5.85812 5.08321 6.15567 4.94654 6.50633C4.81433 6.84558 4.72433 7.23325 4.69879 7.80079C4.67333 8.36971 4.66667 8.55158 4.66667 10C4.66667 11.4485 4.67312 11.6297 4.69887 12.1986C4.725 12.7664 4.81487 13.154 4.94667 13.4931C5.083 13.8439 5.26521 14.1414 5.56179 14.4379C5.85812 14.7345 6.15567 14.9172 6.50625 15.0535C6.84558 15.1853 7.23325 15.2752 7.80092 15.3012C8.36983 15.3271 8.5515 15.3335 9.99983 15.3335C11.4484 15.3335 11.6296 15.3271 12.1985 15.3012C12.7663 15.2752 13.1543 15.1853 13.4937 15.0535C13.8443 14.9172 14.1414 14.7345 14.4377 14.4379C14.7344 14.1414 14.9167 13.8439 15.0533 13.4932C15.1845 13.154 15.2745 12.7663 15.3011 12.1987C15.3267 11.6298 15.3333 11.4485 15.3333 10C15.3333 8.55158 15.3267 8.36983 15.3011 7.80092C15.2745 7.23313 15.1845 6.84558 15.0533 6.50646C14.9167 6.15567 14.7344 5.85812 14.4377 5.56167C14.1411 5.265 13.8444 5.08279 13.4933 4.94667C13.1533 4.81479 12.7655 4.72487 12.1977 4.69887C11.6288 4.673 11.4478 4.66667 9.99883 4.66667H10.0005Z" fill="#00132B"/>
<path fill-rule="evenodd" clip-rule="evenodd" d="M9.52197 5.62877C9.66397 5.62857 9.82242 5.62877 10.0004 5.62877C11.4244 5.62877 11.5932 5.6339 12.1555 5.65944C12.6755 5.68323 12.9578 5.77011 13.1458 5.84311C13.3947 5.93977 13.5721 6.05532 13.7587 6.24198C13.9453 6.42865 14.0609 6.60644 14.1578 6.85536C14.2308 7.04311 14.3178 7.32536 14.3415 7.84536C14.367 8.40757 14.3726 8.57648 14.3726 9.99982C14.3726 11.4232 14.367 11.5921 14.3415 12.1543C14.3177 12.6743 14.2308 12.9565 14.1578 13.1443C14.0611 13.3932 13.9453 13.5704 13.7587 13.757C13.572 13.9437 13.3948 14.0592 13.1458 14.1559C12.958 14.2292 12.6755 14.3159 12.1555 14.3397C11.5933 14.3652 11.4244 14.3707 10.0004 14.3707C8.5763 14.3707 8.40751 14.3652 7.8453 14.3397C7.3253 14.3156 7.04305 14.2287 6.85497 14.1557C6.60605 14.0591 6.42826 13.9435 6.24159 13.7569C6.05492 13.5702 5.93938 13.3929 5.84251 13.1439C5.76951 12.9561 5.68251 12.6739 5.65884 12.1539C5.63326 11.5916 5.62817 11.4227 5.62817 9.99848C5.62817 8.57423 5.63326 8.40623 5.65884 7.84402C5.68259 7.32402 5.76951 7.04177 5.84251 6.85377C5.93917 6.6049 6.05492 6.42711 6.24159 6.24044C6.42826 6.05377 6.60605 5.93823 6.85497 5.84132C7.04297 5.76798 7.3253 5.68132 7.8453 5.65744C8.3373 5.63523 8.52797 5.62857 9.52197 5.62744V5.62877ZM12.8473 6.51432C12.494 6.51432 12.2073 6.80069 12.2073 7.15411C12.2073 7.50744 12.494 7.79411 12.8473 7.79411C13.2007 7.79411 13.4873 7.50744 13.4873 7.15411C13.4873 6.80077 13.2007 6.51432 12.8473 6.51432ZM10.0004 7.26211C8.48784 7.26211 7.26151 8.48848 7.26151 10.001C7.26151 11.5136 8.48784 12.7394 10.0004 12.7394C11.513 12.7394 12.7389 11.5136 12.7389 10.001C12.7389 8.48848 11.513 7.26211 10.0004 7.26211Z" fill="#00132B"/>
<path fill-rule="evenodd" clip-rule="evenodd" d="M10.0004 8.22266C10.9822 8.22266 11.7782 9.01857 11.7782 10.0004C11.7782 10.9822 10.9822 11.7782 10.0004 11.7782C9.01853 11.7782 8.22266 10.9822 8.22266 10.0004C8.22266 9.01857 9.01853 8.22266 10.0004 8.22266Z" fill="#00132B"/>
</svg>
