<svg width="20" height="20" viewBox="0 0 20 20" fill="none" xmlns="http://www.w3.org/2000/svg">
<path fill-rule="evenodd" clip-rule="evenodd" d="M0 10C0 4.47717 4.47717 0 10 0C15.5228 0 20 4.47717 20 10C20 15.5228 15.5228 20 10 20C4.47717 20 0 15.5228 0 10ZM7.06687 8.28242H4.80067V15.0915H7.06687V8.28242ZM7.21617 6.17612C7.20146 5.5085 6.72404 5 5.94875 5C5.1735 5 4.66667 5.5085 4.66667 6.17612C4.66667 6.82992 5.15854 7.35304 5.91933 7.35304H5.93383C6.72404 7.35304 7.21617 6.82992 7.21617 6.17612ZM15.2397 11.1874C15.2397 9.09596 14.1217 8.12254 12.6305 8.12254C11.4272 8.12254 10.8886 8.78342 10.5878 9.24704V8.28262H8.32129C8.35117 8.92154 8.32129 15.0917 8.32129 15.0917H10.5878V11.2889C10.5878 11.0854 10.6025 10.8824 10.6624 10.7367C10.8262 10.3302 11.1991 9.90925 11.8252 9.90925C12.6456 9.90925 12.9735 10.5336 12.9735 11.4486V15.0915H15.2397L15.2397 11.1874Z" fill="#00132B"/>
</svg>
