<svg width="1440" height="741" viewBox="0 0 1440 741" fill="none" xmlns="http://www.w3.org/2000/svg">
<rect width="1440" height="741" fill="#183462"/>
<path d="M635.918 29.5455H639.114L644.67 43.1136H644.875L650.432 29.5455H653.628V47H651.122V34.3693H650.96L645.812 46.9744H643.733L638.585 34.3608H638.423V47H635.918V29.5455ZM662.894 47.2642C661.604 47.2642 660.494 46.9886 659.562 46.4375C658.636 45.8807 657.92 45.0994 657.414 44.0938C656.914 43.0824 656.664 41.8977 656.664 40.5398C656.664 39.1989 656.914 38.017 657.414 36.9943C657.92 35.9716 658.624 35.1733 659.528 34.5994C660.437 34.0256 661.499 33.7386 662.715 33.7386C663.454 33.7386 664.17 33.8608 664.863 34.1051C665.556 34.3494 666.178 34.733 666.729 35.2557C667.281 35.7784 667.715 36.4574 668.033 37.2926C668.352 38.1222 668.511 39.1307 668.511 40.3182V41.2216H658.104V39.3125H666.013C666.013 38.642 665.877 38.0483 665.604 37.5312C665.332 37.0085 664.948 36.5966 664.454 36.2955C663.965 35.9943 663.391 35.8438 662.732 35.8438C662.016 35.8438 661.391 36.0199 660.857 36.3722C660.329 36.7187 659.92 37.1733 659.63 37.7358C659.346 38.2926 659.204 38.8977 659.204 39.5511V41.0426C659.204 41.9176 659.357 42.6619 659.664 43.2756C659.977 43.8892 660.411 44.358 660.968 44.6818C661.525 45 662.175 45.1591 662.92 45.1591C663.403 45.1591 663.843 45.0909 664.241 44.9545C664.638 44.8125 664.982 44.6023 665.272 44.3239C665.562 44.0455 665.783 43.7017 665.937 43.2926L668.349 43.7273C668.156 44.4375 667.809 45.0597 667.309 45.5938C666.815 46.1222 666.192 46.5341 665.442 46.8295C664.698 47.1193 663.849 47.2642 662.894 47.2642ZM676.98 47.2642C675.69 47.2642 674.58 46.9886 673.648 46.4375C672.722 45.8807 672.006 45.0994 671.5 44.0938C671 43.0824 670.75 41.8977 670.75 40.5398C670.75 39.1989 671 38.017 671.5 36.9943C672.006 35.9716 672.71 35.1733 673.614 34.5994C674.523 34.0256 675.585 33.7386 676.801 33.7386C677.54 33.7386 678.256 33.8608 678.949 34.1051C679.642 34.3494 680.264 34.733 680.815 35.2557C681.366 35.7784 681.801 36.4574 682.119 37.2926C682.438 38.1222 682.597 39.1307 682.597 40.3182V41.2216H672.19V39.3125H680.099C680.099 38.642 679.963 38.0483 679.69 37.5312C679.418 37.0085 679.034 36.5966 678.54 36.2955C678.051 35.9943 677.477 35.8438 676.818 35.8438C676.102 35.8438 675.477 36.0199 674.943 36.3722C674.415 36.7187 674.006 37.1733 673.716 37.7358C673.432 38.2926 673.29 38.8977 673.29 39.5511V41.0426C673.29 41.9176 673.443 42.6619 673.75 43.2756C674.062 43.8892 674.497 44.358 675.054 44.6818C675.611 45 676.261 45.1591 677.006 45.1591C677.489 45.1591 677.929 45.0909 678.327 44.9545C678.724 44.8125 679.068 44.6023 679.358 44.3239C679.648 44.0455 679.869 43.7017 680.023 43.2926L682.435 43.7273C682.241 44.4375 681.895 45.0597 681.395 45.5938C680.901 46.1222 680.278 46.5341 679.528 46.8295C678.784 47.1193 677.935 47.2642 676.98 47.2642ZM691.535 33.9091V35.9545H684.384V33.9091H691.535ZM686.302 30.7727H688.85V43.1562C688.85 43.6506 688.924 44.0227 689.072 44.2727C689.219 44.517 689.41 44.6847 689.643 44.7756C689.881 44.8608 690.14 44.9034 690.418 44.9034C690.623 44.9034 690.802 44.8892 690.955 44.8608C691.109 44.8324 691.228 44.8097 691.313 44.7926L691.773 46.8977C691.626 46.9545 691.415 47.0114 691.143 47.0682C690.87 47.1307 690.529 47.1648 690.12 47.1705C689.45 47.1818 688.825 47.0625 688.245 46.8125C687.665 46.5625 687.197 46.1761 686.839 45.6534C686.481 45.1307 686.302 44.4744 686.302 43.6847V30.7727ZM706.816 33.9091V35.9545H699.665V33.9091H706.816ZM701.583 30.7727H704.131V43.1562C704.131 43.6506 704.205 44.0227 704.353 44.2727C704.501 44.517 704.691 44.6847 704.924 44.7756C705.163 44.8608 705.421 44.9034 705.7 44.9034C705.904 44.9034 706.083 44.8892 706.237 44.8608C706.39 44.8324 706.509 44.8097 706.594 44.7926L707.055 46.8977C706.907 46.9545 706.697 47.0114 706.424 47.0682C706.151 47.1307 705.81 47.1648 705.401 47.1705C704.731 47.1818 704.106 47.0625 703.526 46.8125C702.947 46.5625 702.478 46.1761 702.12 45.6534C701.762 45.1307 701.583 44.4744 701.583 43.6847V30.7727ZM712.464 39.2273V47H709.916V29.5455H712.43V36.0398H712.592C712.899 35.3352 713.368 34.7756 713.999 34.3608C714.629 33.946 715.453 33.7386 716.47 33.7386C717.368 33.7386 718.152 33.9233 718.822 34.2926C719.499 34.6619 720.021 35.2131 720.391 35.946C720.766 36.6733 720.953 37.5824 720.953 38.6733V47H718.405V38.9801C718.405 38.0199 718.158 37.2756 717.663 36.7472C717.169 36.2131 716.482 35.946 715.601 35.946C714.999 35.946 714.459 36.0739 713.982 36.3295C713.51 36.5852 713.138 36.9602 712.865 37.4545C712.598 37.9432 712.464 38.5341 712.464 39.2273ZM729.996 47.2642C728.706 47.2642 727.595 46.9886 726.663 46.4375C725.737 45.8807 725.021 45.0994 724.516 44.0938C724.016 43.0824 723.766 41.8977 723.766 40.5398C723.766 39.1989 724.016 38.017 724.516 36.9943C725.021 35.9716 725.726 35.1733 726.629 34.5994C727.538 34.0256 728.601 33.7386 729.817 33.7386C730.555 33.7386 731.271 33.8608 731.964 34.1051C732.658 34.3494 733.28 34.733 733.831 35.2557C734.382 35.7784 734.817 36.4574 735.135 37.2926C735.453 38.1222 735.612 39.1307 735.612 40.3182V41.2216H725.206V39.3125H733.115C733.115 38.642 732.979 38.0483 732.706 37.5312C732.433 37.0085 732.05 36.5966 731.555 36.2955C731.067 35.9943 730.493 35.8438 729.834 35.8438C729.118 35.8438 728.493 36.0199 727.959 36.3722C727.43 36.7187 727.021 37.1733 726.732 37.7358C726.447 38.2926 726.305 38.8977 726.305 39.5511V41.0426C726.305 41.9176 726.459 42.6619 726.766 43.2756C727.078 43.8892 727.513 44.358 728.07 44.6818C728.626 45 729.277 45.1591 730.021 45.1591C730.504 45.1591 730.945 45.0909 731.342 44.9545C731.74 44.8125 732.084 44.6023 732.374 44.3239C732.663 44.0455 732.885 43.7017 733.038 43.2926L735.45 43.7273C735.257 44.4375 734.911 45.0597 734.411 45.5938C733.916 46.1222 733.294 46.5341 732.544 46.8295C731.8 47.1193 730.95 47.2642 729.996 47.2642ZM744.135 31.8125V29.5455H757.643V31.8125H752.197V47H749.572V31.8125H744.135ZM764.168 47.2642C762.878 47.2642 761.767 46.9886 760.835 46.4375C759.909 45.8807 759.193 45.0994 758.688 44.0938C758.188 43.0824 757.938 41.8977 757.938 40.5398C757.938 39.1989 758.188 38.017 758.688 36.9943C759.193 35.9716 759.898 35.1733 760.801 34.5994C761.71 34.0256 762.773 33.7386 763.989 33.7386C764.727 33.7386 765.443 33.8608 766.136 34.1051C766.83 34.3494 767.452 34.733 768.003 35.2557C768.554 35.7784 768.989 36.4574 769.307 37.2926C769.625 38.1222 769.784 39.1307 769.784 40.3182V41.2216H759.378V39.3125H767.287C767.287 38.642 767.151 38.0483 766.878 37.5312C766.605 37.0085 766.222 36.5966 765.727 36.2955C765.239 35.9943 764.665 35.8438 764.006 35.8438C763.29 35.8438 762.665 36.0199 762.131 36.3722C761.602 36.7187 761.193 37.1733 760.903 37.7358C760.619 38.2926 760.477 38.8977 760.477 39.5511V41.0426C760.477 41.9176 760.631 42.6619 760.938 43.2756C761.25 43.8892 761.685 44.358 762.241 44.6818C762.798 45 763.449 45.1591 764.193 45.1591C764.676 45.1591 765.116 45.0909 765.514 44.9545C765.912 44.8125 766.256 44.6023 766.545 44.3239C766.835 44.0455 767.057 43.7017 767.21 43.2926L769.622 43.7273C769.429 44.4375 769.082 45.0597 768.582 45.5938C768.088 46.1222 767.466 46.5341 766.716 46.8295C765.972 47.1193 765.122 47.2642 764.168 47.2642ZM776.421 47.2898C775.592 47.2898 774.842 47.1364 774.171 46.8295C773.501 46.517 772.969 46.0653 772.577 45.4744C772.191 44.8835 771.998 44.1591 771.998 43.3011C771.998 42.5625 772.14 41.9545 772.424 41.4773C772.708 41 773.092 40.6222 773.575 40.3438C774.058 40.0653 774.597 39.8551 775.194 39.7131C775.79 39.571 776.398 39.4631 777.018 39.3892C777.802 39.2983 778.438 39.2244 778.927 39.1676C779.415 39.1051 779.771 39.0057 779.992 38.8693C780.214 38.733 780.325 38.5114 780.325 38.2045V38.1449C780.325 37.4006 780.114 36.8239 779.694 36.4148C779.279 36.0057 778.66 35.8011 777.836 35.8011C776.978 35.8011 776.302 35.9915 775.808 36.3722C775.319 36.7472 774.981 37.1648 774.793 37.625L772.398 37.0795C772.683 36.2841 773.097 35.642 773.643 35.1534C774.194 34.6591 774.827 34.3011 775.543 34.0795C776.259 33.8523 777.012 33.7386 777.802 33.7386C778.325 33.7386 778.879 33.8011 779.464 33.9261C780.055 34.0455 780.606 34.267 781.117 34.5909C781.634 34.9148 782.058 35.3778 782.387 35.9801C782.717 36.5767 782.881 37.3523 782.881 38.3068V47H780.393V45.2102H780.29C780.126 45.5398 779.879 45.8636 779.549 46.1818C779.219 46.5 778.796 46.7642 778.279 46.9744C777.762 47.1847 777.143 47.2898 776.421 47.2898ZM776.975 45.2443C777.68 45.2443 778.282 45.1051 778.782 44.8267C779.288 44.5483 779.671 44.1847 779.933 43.7358C780.2 43.2812 780.333 42.7955 780.333 42.2784V40.5909C780.242 40.6818 780.066 40.767 779.805 40.8466C779.549 40.9205 779.256 40.9858 778.927 41.0426C778.597 41.0937 778.276 41.142 777.964 41.1875C777.651 41.2273 777.39 41.2614 777.18 41.2898C776.685 41.3523 776.234 41.4574 775.825 41.6051C775.421 41.7528 775.097 41.9659 774.853 42.2443C774.614 42.517 774.495 42.8807 774.495 43.3352C774.495 43.9659 774.728 44.4432 775.194 44.767C775.66 45.0852 776.254 45.2443 776.975 45.2443ZM786.276 47V33.9091H788.722V36.0398H788.884C789.156 35.3182 789.602 34.7557 790.222 34.3523C790.841 33.9432 791.582 33.7386 792.446 33.7386C793.321 33.7386 794.054 33.9432 794.645 34.3523C795.241 34.7614 795.682 35.3239 795.966 36.0398H796.102C796.415 35.3409 796.912 34.7841 797.594 34.3693C798.276 33.9489 799.088 33.7386 800.031 33.7386C801.219 33.7386 802.188 34.1108 802.938 34.8551C803.693 35.5994 804.071 36.7216 804.071 38.2216V47H801.523V38.4602C801.523 37.5739 801.281 36.9318 800.798 36.5341C800.315 36.1364 799.739 35.9375 799.068 35.9375C798.239 35.9375 797.594 36.1932 797.134 36.7045C796.673 37.2102 796.443 37.8608 796.443 38.6562V47H793.903V38.2983C793.903 37.5881 793.682 37.017 793.239 36.5852C792.795 36.1534 792.219 35.9375 791.509 35.9375C791.026 35.9375 790.58 36.0653 790.17 36.321C789.767 36.571 789.44 36.9205 789.19 37.3693C788.946 37.8182 788.824 38.3381 788.824 38.929V47H786.276Z" fill="#26CDFF"/>
<circle cx="184" cy="214" r="64" fill="#D9D9D9"/>
<rect x="78" y="288" width="212" height="13" fill="#D9D9D9"/>
<rect x="128" y="311" width="112" height="13" fill="#D9D9D9"/>
<circle cx="541.333" cy="214" r="64" fill="#D9D9D9"/>
<rect x="435.333" y="288" width="212" height="13" fill="#D9D9D9"/>
<rect x="485.333" y="311" width="112" height="13" fill="#D9D9D9"/>
<circle cx="898.667" cy="214" r="64" fill="#D9D9D9"/>
<rect x="792.667" y="288" width="212" height="13" fill="#D9D9D9"/>
<rect x="842.667" y="311" width="112" height="13" fill="#D9D9D9"/>
<circle cx="1256" cy="214" r="64" fill="#D9D9D9"/>
<rect x="1150" y="288" width="212" height="13" fill="#D9D9D9"/>
<rect x="1200" y="311" width="112" height="13" fill="#D9D9D9"/>
<circle cx="184" cy="534" r="64" fill="#D9D9D9"/>
<rect x="78" y="608" width="212" height="13" fill="#D9D9D9"/>
<rect x="128" y="631" width="112" height="13" fill="#D9D9D9"/>
<circle cx="541.333" cy="534" r="64" fill="#D9D9D9"/>
<rect x="435.333" y="608" width="212" height="13" fill="#D9D9D9"/>
<rect x="485.333" y="631" width="112" height="13" fill="#D9D9D9"/>
<circle cx="898.667" cy="534" r="64" fill="#D9D9D9"/>
<rect x="792.667" y="608" width="212" height="13" fill="#D9D9D9"/>
<rect x="842.667" y="631" width="112" height="13" fill="#D9D9D9"/>
<circle cx="1256" cy="534" r="64" fill="#D9D9D9"/>
<rect x="1150" y="608" width="212" height="13" fill="#D9D9D9"/>
<rect x="1200" y="631" width="112" height="13" fill="#D9D9D9"/>
</svg>
