<svg width="20" height="21" viewBox="0 0 20 21" fill="none" xmlns="http://www.w3.org/2000/svg">
<path d="M10 20.5849C4.47716 20.5849 0 16.1078 0 10.5849C0 5.06211 4.47716 0.584961 10 0.584961C15.5228 0.584961 20 5.06211 20 10.5849C20 16.1078 15.5228 20.5849 10 20.5849ZM10 18.5849C14.4183 18.5849 18 15.0032 18 10.5849C18 6.16668 14.4183 2.58496 10 2.58496C5.58172 2.58496 2 6.16668 2 10.5849C2 15.0032 5.58172 18.5849 10 18.5849ZM6.5 12.5849H12C12.2761 12.5849 12.5 12.3611 12.5 12.0849C12.5 11.8088 12.2761 11.5849 12 11.5849H8.00002C6.61929 11.5849 5.5 10.4657 5.5 9.08491C5.5 7.70424 6.61929 6.58496 8.00002 6.58496H9.00002V4.58496H11V6.58496H13.5V8.58491H8.00002C7.72386 8.58491 7.5 8.80881 7.5 9.08491C7.5 9.36111 7.72386 9.58491 8.00002 9.58491H12C13.3807 9.58491 14.5 10.7042 14.5 12.0849C14.5 13.4657 13.3807 14.5849 12 14.5849H11V16.5849H9.00002V14.5849H6.5V12.5849Z" fill="#26CDFF"/>
</svg>
