<svg width="21" height="21" viewBox="0 0 21 21" fill="none" xmlns="http://www.w3.org/2000/svg">
<path d="M8.04954 0.146252C6.64792 -0.307468 5.1243 0.323642 4.45405 1.63554L3.64827 3.21271C3.55253 3.40011 3.40011 3.55252 3.21272 3.64826L1.63554 4.45404C0.323638 5.12429 -0.307462 6.64792 0.146248 8.0495L0.691708 9.7345C0.756518 9.9347 0.756518 10.1503 0.691708 10.3505L0.146248 12.0355C-0.307462 13.4371 0.323648 14.9607 1.63554 15.6309L3.21272 16.4367C3.40011 16.5325 3.55253 16.6849 3.64827 16.8723L4.45405 18.4494C5.1243 19.7613 6.64793 20.3924 8.04954 19.9387L9.73454 19.3933C9.93474 19.3285 10.1502 19.3285 10.3504 19.3933L12.0354 19.9387C13.437 20.3924 14.9607 19.7613 15.6309 18.4494L16.4367 16.8723C16.5324 16.6849 16.6848 16.5325 16.8722 16.4367L18.4494 15.6309C19.7613 14.9607 20.3924 13.4371 19.9387 12.0355L19.3932 10.3505C19.3284 10.1503 19.3284 9.9347 19.3932 9.7345L19.9387 8.0495C20.3924 6.64791 19.7613 5.12429 18.4494 4.45404L16.8722 3.64826C16.6848 3.55252 16.5324 3.4001 16.4367 3.21271L15.6309 1.63554C14.9607 0.323642 13.437 -0.307468 12.0354 0.146252L10.3504 0.691702C10.1502 0.756512 9.93474 0.756512 9.73454 0.691702L8.04954 0.146252ZM6.23507 2.54546C6.45848 2.10816 6.96636 1.8978 7.43356 2.04903L9.11854 2.59449C9.71914 2.78892 10.3658 2.78892 10.9664 2.59449L12.6514 2.04903C13.1186 1.8978 13.6265 2.10816 13.8499 2.54546L14.6557 4.12264C14.9429 4.68482 15.4001 5.14206 15.9623 5.42928L17.5395 6.23506C17.9768 6.45848 18.1872 6.96635 18.0359 7.43355L17.4905 9.1186C17.296 9.7192 17.296 10.3658 17.4905 10.9664L18.0359 12.6514C18.1872 13.1186 17.9768 13.6265 17.5395 13.8499L15.9623 14.6557C15.4001 14.9429 14.9429 15.4002 14.6557 15.9623L13.8499 17.5395C13.6265 17.9768 13.1186 18.1872 12.6514 18.0359L10.9664 17.4905C10.3658 17.2961 9.71914 17.2961 9.11854 17.4905L7.43356 18.0359C6.96636 18.1872 6.45848 17.9768 6.23507 17.5395L5.42929 15.9623C5.14207 15.4002 4.68482 14.9429 4.12265 14.6557L2.54547 13.8499C2.10817 13.6265 1.8978 13.1186 2.04904 12.6514L2.5945 10.9664C2.78892 10.3658 2.78892 9.7192 2.5945 9.1186L2.04904 7.43355C1.8978 6.96635 2.10817 6.45848 2.54547 6.23506L4.12264 5.42928C4.68482 5.14206 5.14207 4.68482 5.42929 4.12264L6.23507 2.54546ZM4.80208 9.7999L9.04474 14.0425L16.1158 6.97145L14.7016 5.55724L9.04474 11.2141L6.2163 8.3856L4.80208 9.7999Z" fill="#1BBDF5"/>
</svg>
