<svg width="16" height="22" viewBox="0 0 16 22" fill="none" xmlns="http://www.w3.org/2000/svg">
<path d="M5.97308 16.085H7V11.085H9V16.085H10.0269C10.1589 14.8834 10.7721 13.8915 11.7676 12.8076C11.8797 12.6856 12.5988 11.9414 12.6841 11.8351C13.5318 10.7781 14 9.46996 14 8.08496C14 4.77125 11.3137 2.08496 8 2.08496C4.68629 2.08496 2 4.77125 2 8.08496C2 9.46926 2.46774 10.7767 3.31462 11.8334C3.40004 11.94 4.12081 12.6862 4.23154 12.8068C5.22766 13.8914 5.84103 14.8834 5.97308 16.085ZM6 18.085V19.085H10V18.085H6ZM1.75395 13.0842C0.65645 11.7147 0 9.97646 0 8.08496C0 3.66668 3.58172 0.0849609 8 0.0849609C12.4183 0.0849609 16 3.66668 16 8.08496C16 9.97746 15.3428 11.7165 14.2443 13.0864C13.624 13.8598 12 15.085 12 16.585V19.085C12 20.1896 11.1046 21.085 10 21.085H6C4.89543 21.085 4 20.1896 4 19.085V16.585C4 15.085 2.37458 13.8586 1.75395 13.0842Z" fill="#1BBDF5"/>
</svg>
