<svg width="24" height="21" viewBox="0 0 24 21" fill="none" xmlns="http://www.w3.org/2000/svg">
<path d="M4 9.91826L0 7.58496L12 0.584961L24 7.58496V16.085H22V8.75166L20 9.91826V16.5963L19.7774 16.8714C17.9457 19.1349 15.1418 20.585 12 20.585C8.85817 20.585 6.05429 19.1349 4.22263 16.8714L4 16.5963V9.91826ZM6 11.085V15.8767C7.46721 17.539 9.61112 18.585 12 18.585C14.3889 18.585 16.5328 17.539 18 15.8767V11.085L12 14.585L6 11.085ZM3.96927 7.58496L12 12.2696L20.0307 7.58496L12 2.90037L3.96927 7.58496Z" fill="#26CDFF"/>
</svg>
