<svg width="63" height="65" viewBox="0 0 63 65" fill="none" xmlns="http://www.w3.org/2000/svg">
<path d="M36.6 47.8C36.6 50.8 34.2 53.2 31.2 53.2C28.2 53.2 25.8 50.8 25.8 47.8C25.8 44.8 28.2 42.4 31.2 42.4C34.2 42.4 36.6 44.8 36.6 47.8Z" fill="#00132B"/>
<path d="M56.6 47.8C56.6 50.8 54.2 53.2 51.2 53.2C48.2 53.2 45.8 50.8 45.8 47.8C45.8 44.8 48.2 42.4 51.2 42.4C54.2 42.4 56.6 44.8 56.6 47.8Z" fill="#00132B"/>
<path d="M62.2 62.4L60.8 58.5C60.2 56.3 58.3 54.8 56 54.8H46.4C44.2 54.8 42.2 56.3 41.6 58.4L41.1 59.6L40.8 58.6C40.2 56.4 38.3 54.9 36 54.9H26.4C26.1 54.9 25.7 54.9 25.4 55V33.9H55.7C58.5 33.9 60.7 31.7 60.7 28.9V5C60.7 2.3 58.5 0 55.7 0H6.6C3.8 0 1.6 2.2 1.6 5V28.9C1.6 31.7 3.8 33.9 6.6 33.9H8.6V43C6.9 43.9 5.7 45.7 5.7 47.8C5.7 50.8 8.1 53.2 11.1 53.2C14.1 53.2 16.5 50.8 16.5 47.8C16.5 44.8 14.1 42.4 11.1 42.4C10.9 42.4 10.7 42.4 10.5 42.4V29.5C10.5 26.5 13 24 16 24H20.3C24 24 29.8 22.8 33.2 21.3L34.3 20.8C34.8 20.6 35.3 20.6 35.8 20.8C36.3 21 36.7 21.4 36.8 21.9C37.1 22.8 36.7 23.8 35.8 24.2L25.7 26.8C24.2 27.2 23.1 28.6 23.1 30.1V32.5C23.1 32.6 23.1 32.7 23.1 32.8C23.1 32.9 23.1 33 23.1 33V55.8C22.3 56.4 21.6 57.4 21.4 58.4L21.1 59.6L20.7 58.4C20.1 56.2 18.2 54.7 15.9 54.7H6.4C4.2 54.7 2.2 56.2 1.6 58.3L0.1 62.6C0.1 62.8 0 62.9 0 63.1C0 63.7 0.5 64.1 1 64.1H21.1C21.2 64.2 21.4 64.2 21.5 64.2C21.6 64.2 21.7 64.2 21.8 64.1C21.8 64.1 21.8 64.1 21.9 64.1L61.1 64C61.5 64 61.9 63.7 62 63.3C62.2 63.1 62.3 62.8 62.2 62.4ZM25.4 30.2C25.4 29.5 25.9 29 26.5 28.8L36.7 26.2C36.7 26.2 36.8 26.2 36.8 26.1C38.4 25.4 39.3 23.8 39.1 22.1L51.3 13.9C51.8 13.6 51.9 13 51.6 12.5C51.3 12 50.7 11.9 50.2 12.2L38.3 20.2C37.9 19.7 37.4 19.3 36.8 19C35.8 18.6 34.6 18.6 33.6 19L32.5 19.5C29.4 20.9 23.8 22 20.4 22H16.1C12 22 8.6 25.4 8.6 29.5V31.9H6.6C4.9 31.9 3.6 30.5 3.6 28.9V5C3.6 3.4 4.9 2 6.6 2H55.7C57.3 2 58.7 3.4 58.7 5V28.9C58.7 30.5 57.3 31.9 55.7 31.9H25.4V30.2Z" fill="#00132B"/>
<path d="M25 14.3C25 17.6 22.3 20.3 19 20.3C15.7 20.3 13 17.6 13 14.3C13 11 15.7 8.29999 19 8.29999C22.3 8.29999 25 11 25 14.3Z" fill="#00132B"/>
</svg>
