<svg width="64" height="15" viewBox="0 0 64 15" fill="none" xmlns="http://www.w3.org/2000/svg">
<path fill-rule="evenodd" clip-rule="evenodd" d="M6.61419 3.37002C13.6734 2.47369 14.4841 10.6841 8.50564 11.4728C1.37882 12.3692 0.3656 4.19469 6.61419 3.37002ZM0.0278106 8.21021C0.3656 12.6918 3.7432 15.1298 8.30299 14.7714C12.5588 14.4845 15.3622 11.4728 14.9569 6.56101C14.5854 2.11528 11.2077 -0.286936 6.68169 0.0716245C2.45969 0.394283 -0.309978 3.37017 0.0278106 8.21036V8.21021Z" fill="#00132B"/>
<path fill-rule="evenodd" clip-rule="evenodd" d="M58.5281 6.30999C61.7706 5.37777 62.3448 11.9031 59.5077 12.5485C57.8527 12.9428 56.9406 11.6163 56.7718 10.0388C56.5692 8.2102 57.1096 6.70446 58.5283 6.30999H58.5281ZM61.2978 5.80798C60.9938 5.48532 60.8587 5.12676 60.4872 4.7682C59.4063 3.76432 57.6837 3.65676 56.3665 4.30208C53.1577 5.91553 53.1241 12.7994 56.299 14.4843C57.1772 14.9863 58.4269 15.058 59.4402 14.6994C60.521 14.3409 60.7573 13.7672 61.3316 13.0143C61.3991 14.0899 61.8044 15.058 62.9866 14.7711C64.0336 14.5201 63.9998 13.4803 63.9998 12.2972V1.75641C63.9998 0.609073 63.5607 -0.179699 62.3785 0.0354065C61.3315 0.21461 61.2976 1.29029 61.2976 2.47338C61.2976 3.58481 61.2976 4.69624 61.2976 5.80767L61.2978 5.80798Z" fill="#00132B"/>
<path fill-rule="evenodd" clip-rule="evenodd" d="M36.4387 6.05898C38.4992 5.52121 40.0865 8.28184 37.6548 8.31774C36.9117 8.31774 35.4255 8.6045 35.1216 7.81573C34.7838 6.8835 35.7633 6.23818 36.4387 6.05898ZM34.7161 10.0745C35.6957 10.0745 41.1337 10.3255 41.539 9.75183C42.0119 9.14226 41.539 7.31371 41.3025 6.66839C40.1203 3.72841 36.5062 3.11899 34.1757 4.62473C31.3385 6.48919 31.1359 12.7276 34.6148 14.4486C38.195 16.2771 42.4847 13.0861 41.0324 11.7237C40.7621 11.4727 39.9853 11.4369 39.5462 11.5443C39.0733 11.6519 38.8706 12.0822 38.5667 12.3331C37.6548 13.1937 34.6823 13.3011 34.7161 10.0743V10.0745Z" fill="#00132B"/>
<path fill-rule="evenodd" clip-rule="evenodd" d="M45.7946 5.87975C45.7946 5.16263 45.7609 4.73242 45.3555 4.33811C45.0177 4.0512 44.4436 3.9079 43.9706 4.123C42.9573 4.58912 43.1937 5.87975 43.1937 7.13479C43.1937 8.42543 43.1937 9.71622 43.1937 11.0069C43.1937 12.1183 42.9236 13.7317 43.599 14.4129C44.3758 15.2376 45.7608 14.7356 45.8621 13.5525C46.166 10.9352 45.2878 7.88766 46.7065 6.66868C47.4157 6.05926 48.8344 6.09501 49.4423 6.91969C50.388 8.13867 49.4085 12.9072 50.0164 14.1262C50.4894 15.0584 51.9755 15.0225 52.4145 14.0545C52.6848 13.445 52.5496 11.1146 52.5496 10.2899C52.5496 7.63665 52.7185 5.30639 50.827 4.26661C50.0164 3.8364 48.7329 3.72869 47.7534 4.05151C46.301 4.55352 46.5712 5.05538 45.7943 5.88006L45.7946 5.87975Z" fill="#00132B"/>
<path fill-rule="evenodd" clip-rule="evenodd" d="M17.4903 14.6638C18.0645 13.4089 17.5241 8.64054 17.6929 6.91954C17.828 5.77221 18.6723 6.48933 19.2804 6.02322C19.6857 5.73631 19.7195 4.33812 19.1116 4.08711C18.5036 3.8361 17.5578 4.30222 17.6592 3.04733C17.7605 2.00755 18.5711 2.43776 19.2129 2.00755C19.7196 1.68489 19.6858 0.465907 19.1116 0.214899C18.6724 0.0356957 17.3551 0.143249 16.8485 0.28655C13.6735 1.03942 15.6325 4.73243 15.7676 5.41365C16.5445 9.24996 14.9909 10.8992 14.9909 12.2975C14.9571 13.1938 14.8896 13.9826 15.1935 14.6638C15.8353 14.8789 16.8485 14.8789 17.4903 14.6638Z" fill="#00132B"/>
<path fill-rule="evenodd" clip-rule="evenodd" d="M22.4216 14.8071C23.8064 14.8071 23.4686 13.7674 23.4686 12.4051C23.4686 10.0388 23.0633 7.31387 24.6508 6.561C25.6979 6.09489 26.6436 6.84776 26.6436 5.16266C26.6436 3.83613 25.968 3.62102 24.8535 4.08713C23.9416 4.48144 23.8739 5.01936 23.4348 5.84388C23.2997 4.73245 23.5361 4.01533 22.3203 4.01533C21.4759 4.01533 20.7666 3.94368 20.7666 5.16266V13.5882C20.7666 14.9147 21.2394 14.8071 22.4216 14.8071Z" fill="#00132B"/>
<path fill-rule="evenodd" clip-rule="evenodd" d="M30.494 13.8034C30.6629 13.1581 30.5615 8.13853 30.5615 7.0271C30.5615 5.95141 30.7304 4.83998 29.9535 4.26647C29.2105 3.72855 28.2309 4.15892 27.9269 4.91179C27.7243 5.48545 27.8256 10.6483 27.8256 11.724C27.8256 12.8354 27.6567 13.9111 28.3661 14.5205C29.2105 15.2017 30.2238 14.664 30.494 13.8034Z" fill="#00132B"/>
<path fill-rule="evenodd" clip-rule="evenodd" d="M28.8387 0.107372C27.0486 0.609234 27.8255 3.29836 29.6156 2.7247C31.2706 2.22268 30.5614 -0.394491 28.8387 0.107372Z" fill="#11C8F3"/>
</svg>
